<?xml version="1.0" encoding="utf-8"?>
<svg version="1.1" width="30px" height="36px" xmlns="http://www.w3.org/2000/svg" xmlns:xlink="http://www.w3.org/1999/xlink" x="0px" y="0px" viewBox="0 0 60 72">
  <g id="icon" transform="translate(0, -6)">
    <path opacity="0.8" fill="#3B94D9" d="M30.001,12C16.767,12,6,22.765,6,35.999s10.766,23.999,24,23.999s24-10.765,24-23.999S43.235,12,30.001,12L30.001,12z"/>
    <path fill="#FFFFFF" d="M39.201,34.34l-12-9c-0.607-0.455-1.419-0.528-2.095-0.189c-0.677,0.339-1.106,1.031-1.106,1.789v18c0,0.758,0.428,1.45,1.106,1.789c0.283,0.142,0.589,0.211,0.894,0.211c0.425,0,0.847-0.136,1.2-0.4l12-9c0.503-0.377,0.8-0.97,0.8-1.6C40.001,35.31,39.705,34.717,39.201,34.34z"/>
    <path fill="#FFFFFF" d="M30,15c11.598,0,21,9.402,21,20.999s-9.401,20.999-21,20.999c-11.599,0-21-9.402-21-20.999S18.401,15,30,15 M30,9C15.112,9,3,21.111,3,35.999s12.112,26.999,27,26.999c14.888,0,27-12.111,27-26.999S44.888,9,30,9L30,9z"/>
  </g>
</svg>
